<svg id="visual" viewBox="0 0 900 600" width="900" height="600" xmlns="http://www.w3.org/2000/svg" xmlns:xlink="http://www.w3.org/1999/xlink" version="1.1"><rect x="0" y="0" width="900" height="600" fill="#001220"></rect><defs><linearGradient id="grad1_0" x1="33.3%" y1="0%" x2="100%" y2="100%"><stop offset="20%" stop-color="#001220" stop-opacity="1"></stop><stop offset="80%" stop-color="#001220" stop-opacity="1"></stop></linearGradient></defs><defs><linearGradient id="grad2_0" x1="0%" y1="0%" x2="66.7%" y2="100%"><stop offset="20%" stop-color="#001220" stop-opacity="1"></stop><stop offset="80%" stop-color="#001220" stop-opacity="1"></stop></linearGradient></defs><g transform="translate(900, 0)"><path d="M0 486.7C-65.4 482.8 -130.9 478.8 -186.3 449.7C-241.7 420.6 -287 366.4 -312.5 312.5C-338.1 258.7 -343.8 205.1 -369.6 153.1C-395.3 101 -441 50.5 -486.7 0L0 0Z" fill="#0066FF"></path></g><g transform="translate(0, 600)"><path d="M0 -486.7C58.2 -466.6 116.4 -446.4 176.4 -425.9C236.4 -405.4 298.2 -384.6 344.2 -344.2C390.2 -303.7 420.5 -243.6 441.6 -182.9C462.8 -122.3 474.8 -61.1 486.7 0L0 0Z" fill="#0066FF"></path></g></svg>