<svg id="visual" viewBox="0 0 960 540" width="960" height="540" xmlns="http://www.w3.org/2000/svg" xmlns:xlink="http://www.w3.org/1999/xlink" version="1.1"><rect x="0" y="0" width="960" height="540" fill="#001220"></rect><g fill="#0066FF"><circle r="65" cx="414" cy="123"></circle><circle r="21" cx="565" cy="204"></circle><circle r="23" cx="163" cy="436"></circle><circle r="62" cx="930" cy="71"></circle><circle r="51" cx="177" cy="265"></circle><circle r="33" cx="353" cy="478"></circle><circle r="21" cx="141" cy="138"></circle><circle r="50" cx="904" cy="397"></circle><circle r="23" cx="309" cy="13"></circle><circle r="45" cx="18" cy="251"></circle><circle r="50" cx="58" cy="8"></circle><circle r="35" cx="845" cy="197"></circle><circle r="53" cx="573" cy="451"></circle><circle r="34" cx="477" cy="343"></circle><circle r="48" cx="640" cy="40"></circle><circle r="54" cx="789" cy="12"></circle><circle r="50" cx="688" cy="350"></circle><circle r="22" cx="769" cy="476"></circle><circle r="23" cx="718" cy="163"></circle><circle r="34" cx="343" cy="319"></circle><circle r="28" cx="2" cy="406"></circle><circle r="31" cx="286" cy="168"></circle><circle r="32" cx="888" cy="535"></circle><circle r="59" cx="68" cy="521"></circle><circle r="52" cx="502" cy="17"></circle></g></svg>