<svg id="visual" viewBox="0 0 900 600" width="900" height="600" xmlns="http://www.w3.org/2000/svg" xmlns:xlink="http://www.w3.org/1999/xlink" version="1.1"><rect x="0" y="0" width="900" height="600" fill="#140021"></rect><path d="M159 0L215 0L215 55L222 55L222 109L211 109L211 164L186 164L186 218L169 218L169 273L200 273L200 327L223 327L223 382L189 382L189 436L207 436L207 491L232 491L232 545L227 545L227 600L0 600L0 545L0 545L0 491L0 491L0 436L0 436L0 382L0 382L0 327L0 327L0 273L0 273L0 218L0 218L0 164L0 164L0 109L0 109L0 55L0 55L0 0L0 0Z" fill="#0066ff"></path><path d="M127 0L140 0L140 55L177 55L177 109L141 109L141 164L120 164L120 218L180 218L180 273L135 273L135 327L165 327L165 382L142 382L142 436L124 436L124 491L140 491L140 545L158 545L158 600L0 600L0 545L0 545L0 491L0 491L0 436L0 436L0 382L0 382L0 327L0 327L0 273L0 273L0 218L0 218L0 164L0 164L0 109L0 109L0 55L0 55L0 0L0 0Z" fill="#0165ef"></path><path d="M125 0L115 0L115 55L86 55L86 109L126 109L126 164L117 164L117 218L98 218L98 273L88 273L88 327L118 327L118 382L104 382L104 436L85 436L85 491L119 491L119 545L70 545L70 600L0 600L0 545L0 545L0 491L0 491L0 436L0 436L0 382L0 382L0 327L0 327L0 273L0 273L0 218L0 218L0 164L0 164L0 109L0 109L0 55L0 55L0 0L0 0Z" fill="#0e64df"></path><path d="M38 0L47 0L47 55L74 55L74 109L31 109L31 164L64 164L64 218L46 218L46 273L34 273L34 327L31 327L31 382L67 382L67 436L78 436L78 491L76 491L76 545L79 545L79 600L0 600L0 545L0 545L0 491L0 491L0 436L0 436L0 382L0 382L0 327L0 327L0 273L0 273L0 218L0 218L0 164L0 164L0 109L0 109L0 55L0 55L0 0L0 0Z" fill="#1b63cf"></path></svg>