<svg id="visual" viewBox="0 0 900 600" width="900" height="600" xmlns="http://www.w3.org/2000/svg" xmlns:xlink="http://www.w3.org/1999/xlink" version="1.1"><rect x="0" y="0" width="900" height="600" fill="#0066FF"></rect><path d="M0 138L21.5 145C43 152 86 166 128.8 175.2C171.7 184.3 214.3 188.7 257.2 172.5C300 156.3 343 119.7 385.8 103.3C428.7 87 471.3 91 514.2 97.5C557 104 600 113 642.8 128.7C685.7 144.3 728.3 166.7 771.2 168C814 169.3 857 149.7 878.5 139.8L900 130L900 0L878.5 0C857 0 814 0 771.2 0C728.3 0 685.7 0 642.8 0C600 0 557 0 514.2 0C471.3 0 428.7 0 385.8 0C343 0 300 0 257.2 0C214.3 0 171.7 0 128.8 0C86 0 43 0 21.5 0L0 0Z" fill="#000000" stroke-linecap="round" stroke-linejoin="miter"></path></svg>